<svg width="144" height="58" viewBox="0 0 144 58" fill="none" xmlns="http://www.w3.org/2000/svg">
<rect x="1" y="1" width="142" height="56" rx="8" fill="#ACACAC" stroke="#F1CF54" stroke-width="2"/>
<path d="M15.5469 35V33.291L17.0605 32.998V22.793L15.5469 22.5V20.7812H17.0605H19.9512L26.1426 30.6445L26.2012 30.6348V22.793L24.3848 22.5V20.7812H28.75H30.2734V22.5L28.75 22.793V35H25.9961L19.668 25.2344L19.6094 25.2441V32.998L21.4355 33.291V35H15.5469ZM36.3379 35.2051C35.3288 35.2051 34.4466 34.9837 33.6914 34.541C32.9362 34.0918 32.3503 33.4766 31.9336 32.6953C31.5234 31.9141 31.3184 31.0221 31.3184 30.0195V29.6289C31.3184 28.5807 31.5137 27.653 31.9043 26.8457C32.2949 26.0319 32.8451 25.3939 33.5547 24.9316C34.2708 24.4629 35.1139 24.2318 36.084 24.2383C37.041 24.2383 37.8451 24.4271 38.4961 24.8047C39.1471 25.1823 39.6419 25.7259 39.9805 26.4355C40.319 27.1452 40.4883 28.0046 40.4883 29.0137V30.5664H34.2773L34.2578 30.625C34.2969 31.0872 34.4108 31.5007 34.5996 31.8652C34.7949 32.2233 35.0684 32.5065 35.4199 32.7148C35.7715 32.9167 36.1979 33.0176 36.6992 33.0176C37.2201 33.0176 37.7051 32.9525 38.1543 32.8223C38.61 32.6855 39.0527 32.487 39.4824 32.2266L40.2539 33.9844C39.8177 34.3359 39.2676 34.6289 38.6035 34.8633C37.946 35.0911 37.1908 35.2051 36.3379 35.2051ZM34.2969 28.6816H37.8223V28.4277C37.8223 27.998 37.7637 27.6302 37.6465 27.3242C37.5358 27.0117 37.3535 26.7708 37.0996 26.6016C36.8522 26.4323 36.5299 26.3477 36.1328 26.3477C35.7552 26.3477 35.4362 26.4486 35.1758 26.6504C34.9154 26.8457 34.7103 27.1159 34.5605 27.4609C34.4173 27.806 34.3197 28.1966 34.2676 28.6328L34.2969 28.6816ZM41.4844 35V33.291L42.8418 33.1152L45.8691 29.707L43.0078 26.3184L41.7285 26.1523V24.4336H46.9629V26.0742L46.1426 26.2012L47.6758 28.2129L49.209 26.2012L48.3008 26.0742V24.4336H53.3496V26.1523L52.168 26.3184L49.4629 29.5898L52.4805 33.1152L53.7793 33.291V35H48.3594V33.3691L49.2773 33.2422L47.6465 31.2207L46.0547 33.252L46.9531 33.3691V35H41.4844ZM58.8477 35.2051C57.8646 35.2051 57.1061 34.9349 56.5723 34.3945C56.0449 33.8542 55.7812 32.998 55.7812 31.8262V26.4355H54.3262V24.4336H55.7812V21.8457H58.623V24.4336H60.5664V26.4355H58.623V31.8164C58.623 32.2266 58.7077 32.5195 58.877 32.6953C59.0527 32.8711 59.2904 32.959 59.5898 32.959C59.7526 32.959 59.9219 32.9492 60.0977 32.9297C60.2799 32.9036 60.4362 32.8776 60.5664 32.8516L60.8105 34.9121C60.5176 34.9967 60.1986 35.0651 59.8535 35.1172C59.515 35.1758 59.1797 35.2051 58.8477 35.2051ZM66.7188 35V33.291L68.2324 32.998V22.793L66.7188 22.5V20.7812H73.457C74.5508 20.7812 75.4883 20.9505 76.2695 21.2891C77.0508 21.6276 77.6497 22.1126 78.0664 22.7441C78.4896 23.3757 78.7012 24.1341 78.7012 25.0195C78.7012 25.8529 78.4928 26.5983 78.0762 27.2559C77.6595 27.9134 77.0801 28.431 76.3379 28.8086C75.5957 29.1862 74.7396 29.3783 73.7695 29.3848H71.084V32.998L72.6074 33.291V35H66.7188ZM75.8691 35L73.4766 28.8574L76.0449 28.2227L78.1152 33.0078L79.3262 33.291V35H75.8691ZM71.084 27.1875H73.4082C74.2285 27.1875 74.8405 27.015 75.2441 26.6699C75.6543 26.3184 75.8594 25.8105 75.8594 25.1465C75.8594 24.4889 75.6576 23.9648 75.2539 23.5742C74.8503 23.1771 74.2513 22.9785 73.457 22.9785H71.084V27.1875ZM85.5762 35.2051C84.5345 35.2051 83.6393 34.9772 82.8906 34.5215C82.1419 34.0658 81.569 33.4342 81.1719 32.627C80.7747 31.8132 80.5762 30.8789 80.5762 29.8242V29.6191C80.5762 28.571 80.7747 27.6432 81.1719 26.8359C81.569 26.0221 82.1387 25.3874 82.8809 24.9316C83.6296 24.4694 84.5215 24.2383 85.5566 24.2383C86.6048 24.2383 87.5 24.4694 88.2422 24.9316C88.9844 25.3874 89.554 26.0189 89.9512 26.8262C90.3483 27.6335 90.5469 28.5645 90.5469 29.6191V29.8242C90.5469 30.8789 90.3483 31.8132 89.9512 32.627C89.554 33.4342 88.9844 34.0658 88.2422 34.5215C87.5 34.9772 86.6113 35.2051 85.5762 35.2051ZM85.5762 33.0176C86.071 33.0176 86.4746 32.8841 86.7871 32.6172C87.0996 32.3503 87.3307 31.9792 87.4805 31.5039C87.6302 31.0221 87.7051 30.4622 87.7051 29.8242V29.6191C87.7051 28.9941 87.6302 28.444 87.4805 27.9688C87.3307 27.487 87.0964 27.1126 86.7773 26.8457C86.4648 26.5723 86.0579 26.4355 85.5566 26.4355C85.0684 26.4355 84.6647 26.5723 84.3457 26.8457C84.0267 27.1126 83.7923 27.487 83.6426 27.9688C83.4993 28.444 83.4277 28.9941 83.4277 29.6191V29.8242C83.4277 30.4622 83.4993 31.0221 83.6426 31.5039C83.7923 31.9857 84.0267 32.36 84.3457 32.627C84.6647 32.8874 85.0749 33.0176 85.5762 33.0176ZM96.3086 35.2051C95.1953 35.2051 94.3197 34.8535 93.6816 34.1504C93.0501 33.4408 92.7344 32.3405 92.7344 30.8496V26.4453L91.5723 26.1523V24.4336H92.7344H95.5859V30.8691C95.5859 31.6243 95.7161 32.168 95.9766 32.5C96.2435 32.8255 96.6439 32.9883 97.1777 32.9883C97.6009 32.9883 97.9753 32.9069 98.3008 32.7441C98.6263 32.5749 98.8932 32.3372 99.1016 32.0312V26.4453L97.8418 26.1523V24.4336H99.1016H101.953V32.998L103.223 33.291V35H99.4531L99.2578 33.6621C98.9258 34.1569 98.5091 34.5378 98.0078 34.8047C97.5065 35.0716 96.9401 35.2051 96.3086 35.2051ZM104.18 35V33.291L105.547 32.998V26.4453L104.033 26.1523V24.4336H108.203L108.33 25.9473C108.682 25.4069 109.115 24.987 109.629 24.6875C110.15 24.388 110.742 24.2383 111.406 24.2383C112.454 24.2383 113.275 24.5736 113.867 25.2441C114.46 25.9147 114.756 26.9661 114.756 28.3984V32.998L116.123 33.291V35H110.674V33.291L111.895 32.998V28.4082C111.895 27.6986 111.755 27.1973 111.475 26.9043C111.195 26.6048 110.778 26.4551 110.225 26.4551C109.814 26.4551 109.456 26.543 109.15 26.7188C108.851 26.888 108.6 27.1322 108.398 27.4512V32.998L109.551 33.291V35H104.18ZM121.006 35.2051C120.166 35.2051 119.443 34.9902 118.838 34.5605C118.239 34.1243 117.78 33.5189 117.461 32.7441C117.142 31.9629 116.982 31.0514 116.982 30.0098V29.8047C116.982 28.6914 117.142 27.7181 117.461 26.8848C117.786 26.0514 118.249 25.4036 118.848 24.9414C119.447 24.4727 120.163 24.2383 120.996 24.2383C121.576 24.2383 122.083 24.3555 122.52 24.5898C122.956 24.8177 123.333 25.1432 123.652 25.5664V21.7773L122.129 21.4844V19.7656H123.652H126.504V32.998L127.871 33.291V35H124.033L123.818 33.7109C123.486 34.1992 123.089 34.5703 122.627 34.8242C122.171 35.0781 121.631 35.2051 121.006 35.2051ZM121.855 32.9883C122.253 32.9883 122.601 32.9036 122.9 32.7344C123.2 32.5651 123.451 32.321 123.652 32.002V27.5195C123.457 27.181 123.21 26.9206 122.91 26.7383C122.611 26.5495 122.266 26.4551 121.875 26.4551C121.4 26.4551 121.009 26.5983 120.703 26.8848C120.404 27.1647 120.182 27.5553 120.039 28.0566C119.902 28.5579 119.834 29.1406 119.834 29.8047V30.0098C119.834 30.9342 119.99 31.6634 120.303 32.1973C120.615 32.7246 121.133 32.9883 121.855 32.9883Z" fill="white"/>
</svg>
