<svg width="128" height="40" viewBox="0 0 128 40" fill="none" xmlns="http://www.w3.org/2000/svg">
<path d="M0 20C0 8.95431 8.95431 0 20 0L108 0C119.046 0 128 8.95431 128 20V20C128 31.0457 119.046 40 108 40L20 40C8.95431 40 0 31.0457 0 20V20Z" fill="url(#paint0_linear_279_2)"/>
<path d="M33.0801 28.2051C32.11 28.2051 31.2083 28.0846 30.375 27.8438C29.5417 27.6029 28.7311 27.2025 27.9434 26.6426V23.3711H29.8477L30.1602 25.4902C30.5052 25.7376 30.9284 25.9362 31.4297 26.0859C31.9375 26.2357 32.4876 26.3105 33.0801 26.3105C33.6595 26.3105 34.1445 26.2292 34.5352 26.0664C34.9323 25.8971 35.235 25.6628 35.4434 25.3633C35.6517 25.0638 35.7559 24.709 35.7559 24.2988C35.7559 23.9212 35.6647 23.5859 35.4824 23.293C35.3001 23 34.9974 22.7396 34.5742 22.5117C34.151 22.2773 33.5781 22.0625 32.8555 21.8672C31.7943 21.5807 30.9056 21.2422 30.1895 20.8516C29.4798 20.4609 28.9427 19.9922 28.5781 19.4453C28.2201 18.8984 28.041 18.2539 28.041 17.5117C28.041 16.75 28.2461 16.0762 28.6562 15.4902C29.0729 14.9043 29.6491 14.4421 30.3848 14.1035C31.1204 13.765 31.9701 13.5924 32.9336 13.5859C33.9883 13.5729 34.9193 13.7096 35.7266 13.9961C36.5404 14.2826 37.2272 14.6569 37.7871 15.1191V18.1758H35.9219L35.5703 16.1836C35.3034 15.9948 34.9551 15.8353 34.5254 15.7051C34.1022 15.5684 33.6009 15.5 33.0215 15.5C32.5267 15.5 32.0905 15.5814 31.7129 15.7441C31.3353 15.9069 31.0391 16.138 30.8242 16.4375C30.6094 16.7305 30.502 17.082 30.502 17.4922C30.502 17.8503 30.5964 18.1628 30.7852 18.4297C30.974 18.6966 31.2897 18.9408 31.7324 19.1621C32.1751 19.377 32.7741 19.5951 33.5293 19.8164C35.0723 20.2266 36.2409 20.793 37.0352 21.5156C37.8294 22.2383 38.2266 23.1595 38.2266 24.2793C38.2266 25.0671 38.0117 25.7572 37.582 26.3496C37.1589 26.9355 36.5599 27.3913 35.7852 27.7168C35.0169 28.0423 34.1152 28.2051 33.0801 28.2051ZM44.1445 28.2051C43.0117 28.2051 42.1263 27.847 41.4883 27.1309C40.8568 26.4082 40.541 25.2884 40.541 23.7715V19.2402L39.3496 18.9473V17.4336H40.541H43.002V23.791C43.002 24.7025 43.1452 25.3438 43.4316 25.7148C43.7246 26.0794 44.1738 26.2617 44.7793 26.2617C45.3132 26.2617 45.7656 26.1576 46.1367 25.9492C46.5143 25.7344 46.8138 25.4316 47.0352 25.041V19.2402L45.707 18.9473V17.4336H47.0352H49.4961V26.2031L50.7461 26.4961V28H47.3184L47.1523 26.5645C46.8203 27.0918 46.3971 27.4987 45.8828 27.7852C45.375 28.0651 44.7956 28.2051 44.1445 28.2051ZM57.8555 28.2051C57.1914 28.2051 56.6185 28.0749 56.1367 27.8145C55.6549 27.554 55.2513 27.1764 54.9258 26.6816L54.7305 28H52.6113V14.5723L51.0586 14.2793V12.7656H55.0625V18.6152C55.3815 18.166 55.7721 17.8242 56.2344 17.5898C56.7031 17.3555 57.2467 17.2383 57.8652 17.2383C58.7311 17.2383 59.4635 17.4727 60.0625 17.9414C60.668 18.4036 61.1302 19.0547 61.4492 19.8945C61.7682 20.7344 61.9277 21.7207 61.9277 22.8535V23.0586C61.9277 24.0872 61.7682 24.9889 61.4492 25.7637C61.1302 26.5384 60.668 27.1406 60.0625 27.5703C59.457 27.9935 58.7214 28.2051 57.8555 28.2051ZM57.1523 26.2617C57.9596 26.2617 58.5456 25.9785 58.9102 25.4121C59.2812 24.8392 59.4668 24.0547 59.4668 23.0586V22.8535C59.4668 22.1113 59.3854 21.4668 59.2227 20.9199C59.0599 20.3665 58.8092 19.9401 58.4707 19.6406C58.1322 19.3346 57.696 19.1816 57.1621 19.1816C56.6673 19.1816 56.2441 19.3021 55.8926 19.543C55.5475 19.7773 55.2708 20.0964 55.0625 20.5V25.0117C55.2773 25.4089 55.5573 25.7181 55.9023 25.9395C56.2539 26.1543 56.6706 26.2617 57.1523 26.2617ZM63.1191 28V26.4961L64.5938 26.2031V19.2402L63.041 18.9473V17.4336H66.8496L66.9668 18.8203C67.3118 18.319 67.7415 17.9316 68.2559 17.6582C68.7767 17.3783 69.3789 17.2383 70.0625 17.2383C70.7526 17.2383 71.3418 17.3945 71.8301 17.707C72.3249 18.013 72.6992 18.4785 72.9531 19.1035C73.2786 18.5241 73.7051 18.0684 74.2324 17.7363C74.7663 17.4043 75.3913 17.2383 76.1074 17.2383C77.1686 17.2383 78.002 17.5996 78.6074 18.3223C79.2194 19.0449 79.5254 20.1387 79.5254 21.6035V26.2031L81 26.4961V28H75.6777V26.4961L77.0645 26.2031V21.5938C77.0645 20.7018 76.9147 20.0768 76.6152 19.7188C76.3158 19.3607 75.8763 19.1816 75.2969 19.1816C74.7565 19.1816 74.3105 19.3542 73.959 19.6992C73.6139 20.0443 73.3893 20.4837 73.2852 21.0176V26.2031L74.623 26.4961V28H69.4961V26.4961L70.834 26.2031V21.5938C70.834 20.7344 70.681 20.1191 70.375 19.748C70.069 19.3704 69.6263 19.1816 69.0469 19.1816C68.5651 19.1816 68.1582 19.2793 67.8262 19.4746C67.5007 19.6699 67.2402 19.9466 67.0449 20.3047V26.2031L68.4219 26.4961V28H63.1191ZM82.0742 28V26.4961L83.5391 26.2031V19.2402L81.9863 18.9473V17.4336H86V26.2031L87.4551 26.4961V28H82.0742ZM83.4414 15.041V12.7656H86V15.041H83.4414ZM92.5527 28.1855C91.6543 28.1855 90.9544 27.9349 90.4531 27.4336C89.9518 26.9258 89.7012 26.1185 89.7012 25.0117V19.1914H88.1582V17.4336H89.7012V14.8652H92.1523V17.4336H94.2422V19.1914H92.1523V25.0117C92.1523 25.4609 92.2435 25.7897 92.4258 25.998C92.6146 26.1999 92.8685 26.3008 93.1875 26.3008C93.3698 26.3008 93.5716 26.2845 93.793 26.252C94.0208 26.2194 94.2031 26.1868 94.3398 26.1543L94.5938 27.8828C94.3073 27.9674 93.9785 28.0391 93.6074 28.0977C93.2428 28.1562 92.8913 28.1855 92.5527 28.1855Z" fill="white"/>
<defs>
<linearGradient id="paint0_linear_279_2" x1="128" y1="-6.66665" x2="-7.91421" y2="23.794" gradientUnits="userSpaceOnUse">
<stop stop-color="#9D0208"/>
<stop offset="1" stop-color="#F1CF54"/>
</linearGradient>
</defs>
</svg>
